<?xml version="1.0" encoding="UTF-8"?>
<!DOCTYPE svg PUBLIC "-//W3C//DTD SVG 1.1//EN" "http://www.w3.org/Graphics/SVG/1.1/DTD/svg11.dtd">
<svg xmlns="http://www.w3.org/2000/svg" version="1.1" width="256px" height="256px" style="shape-rendering:geometricPrecision; text-rendering:geometricPrecision; image-rendering:optimizeQuality; fill-rule:evenodd; clip-rule:evenodd" xmlns:xlink="http://www.w3.org/1999/xlink">
<g><path style="opacity:1" fill="#343434" d="M 184.5,4.5 C 183.903,5.13863 183.07,5.47196 182,5.5C 171.215,4.64428 160.715,3.64428 150.5,2.5C 161.768,1.55361 173.102,2.22028 184.5,4.5 Z"/></g>
<g><path style="opacity:1" fill="#030303" d="M 149.5,2.5 C 149.833,2.5 150.167,2.5 150.5,2.5C 160.715,3.64428 171.215,4.64428 182,5.5C 183.07,5.47196 183.903,5.13863 184.5,4.5C 184.833,4.5 185.167,4.5 185.5,4.5C 193.326,11.965 196.492,21.2984 195,32.5C 191.325,38.1726 187.658,43.8392 184,49.5C 181.565,55.6154 177.898,60.9487 173,65.5C 172.333,74.5 172.333,83.5 173,92.5C 183.792,93.1736 194.626,94.007 205.5,95C 208.377,99.3785 212.044,102.878 216.5,105.5C 217.586,105.62 218.253,106.287 218.5,107.5C 218.253,108.713 217.586,109.38 216.5,109.5C 214.616,110.382 213.283,111.882 212.5,114C 210.444,114.311 208.444,114.811 206.5,115.5C 206.466,118.487 206.132,121.487 205.5,124.5C 200.291,126.21 194.958,127.543 189.5,128.5C 189.334,133.179 189.501,137.845 190,142.5C 195.205,143.14 200.371,144.14 205.5,145.5C 206.795,149.38 206.795,153.214 205.5,157C 202.247,158.036 198.914,158.703 195.5,159C 194.484,159.519 193.818,160.353 193.5,161.5C 194.22,166.137 194.72,170.803 195,175.5C 198.043,178.509 201.043,181.509 204,184.5C 204.032,190.158 203.699,195.825 203,201.5C 202.617,202.056 202.117,202.389 201.5,202.5C 197.727,202.263 194.06,202.763 190.5,204C 190.094,207.415 188.428,210.082 185.5,212C 179.842,212.251 174.508,213.418 169.5,215.5C 167.957,216.736 166.957,218.402 166.5,220.5C 162.318,221.754 158.651,223.754 155.5,226.5C 154.883,226.611 154.383,226.944 154,227.5C 153.708,231.882 153.208,236.215 152.5,240.5C 151.167,241.167 149.833,241.833 148.5,242.5C 146.52,242.146 144.52,241.813 142.5,241.5C 146.911,238.929 147.244,236.096 143.5,233C 144.451,232.282 144.617,231.449 144,230.5C 142.512,228.84 140.679,227.84 138.5,227.5C 127.265,226.098 115.932,225.431 104.5,225.5C 94.8333,225.5 85.1667,225.5 75.5,225.5C 76.6085,224.71 77.9419,224.21 79.5,224C 77.0709,223.297 74.7375,223.463 72.5,224.5C 73.1048,221.643 73.1048,218.309 72.5,214.5C 74.588,215.939 76.9214,216.606 79.5,216.5C 100.503,216.667 121.503,216.5 142.5,216C 145.909,215.004 149.242,214.171 152.5,213.5C 153.953,212.151 154.953,210.485 155.5,208.5C 156.53,205.588 158.03,202.921 160,200.5C 160.664,196.304 160.497,192.138 159.5,188C 158.201,183.24 156.534,178.74 154.5,174.5C 152.585,174.784 150.919,174.451 149.5,173.5C 149.286,171.856 149.62,170.356 150.5,169C 164.426,165.357 168.926,156.523 164,142.5C 163.623,141.058 162.79,140.058 161.5,139.5C 152.731,136.458 143.731,135.792 134.5,137.5C 133.812,138.855 132.812,139.855 131.5,140.5C 127.343,141.186 126.009,139.686 127.5,136C 127.164,134.97 126.497,134.47 125.5,134.5C 127.022,128.367 124.689,125.034 118.5,124.5C 108.494,124.334 98.4944,124.5 88.5,125C 86.6854,125.757 85.0188,126.59 83.5,127.5C 78.3844,127.569 73.3844,126.902 68.5,125.5C 67.1667,124.067 65.6667,122.733 64,121.5C 63.6667,119.5 63.3333,117.5 63,115.5C 61.3333,114.833 59.6667,114.167 58,113.5C 53.1667,107.167 48.3333,100.833 43.5,94.5C 61.8212,93.5004 80.1546,93.1671 98.5,93.5C 99.0008,84.8302 99.1675,76.1635 99,67.5C 95.2724,64.2615 91.4391,61.2615 87.5,58.5C 85.1818,52.2166 83.1818,45.8833 81.5,39.5C 81.5,39.1667 81.5,38.8333 81.5,38.5C 80.6695,33.9263 80.6695,29.4263 81.5,25C 91.1667,24.6667 100.833,24.3333 110.5,24C 111.103,22.1746 111.77,20.3413 112.5,18.5C 114.911,17.6389 116.911,16.3056 118.5,14.5C 127.365,12.8609 136.365,12.0275 145.5,12C 146.731,10.8173 146.731,9.65066 145.5,8.5C 144.205,7.90174 142.872,7.40174 141.5,7C 144.968,6.77008 147.634,5.27008 149.5,2.5 Z"/></g>
<g><path style="opacity:1" fill="#303030" d="M 149.5,2.5 C 147.634,5.27008 144.968,6.77008 141.5,7C 142.872,7.40174 144.205,7.90174 145.5,8.5C 146.731,9.65066 146.731,10.8173 145.5,12C 136.365,12.0275 127.365,12.8609 118.5,14.5C 128.313,9.33675 138.647,5.33675 149.5,2.5 Z"/></g>
<g><path style="opacity:1" fill="#2e2e2e" d="M 118.5,14.5 C 116.911,16.3056 114.911,17.6389 112.5,18.5C 111.77,20.3413 111.103,22.1746 110.5,24C 100.833,24.3333 91.1667,24.6667 81.5,25C 80.6695,29.4263 80.6695,33.9263 81.5,38.5C 79.3355,33.8741 78.3355,28.8741 78.5,23.5C 86.7175,22.0469 95.0508,21.2136 103.5,21C 108.259,18.2877 113.259,16.121 118.5,14.5 Z"/></g>
<g><path style="opacity:1" fill="#363636" d="M 81.5,39.5 C 83.1818,45.8833 85.1818,52.2166 87.5,58.5C 86.5041,58.5858 85.6708,58.2524 85,57.5C 82.0685,51.918 80.9019,45.918 81.5,39.5 Z"/></g>
<g><path style="opacity:1" fill="#3a3a3a" d="M 185.5,4.5 C 188.325,4.08073 190.491,5.08073 192,7.5C 194.831,15.414 196.998,23.2473 198.5,31C 192.04,40.0822 186.206,49.5822 181,59.5C 178.989,62.0099 176.822,64.3432 174.5,66.5C 173.626,74.7657 173.293,82.9323 173.5,91C 184.357,91.7417 195.19,92.575 206,93.5C 208.732,96.9709 211.899,99.9709 215.5,102.5C 216.386,103.325 216.719,104.325 216.5,105.5C 212.044,102.878 208.377,99.3785 205.5,95C 194.626,94.007 183.792,93.1736 173,92.5C 172.333,83.5 172.333,74.5 173,65.5C 177.898,60.9487 181.565,55.6154 184,49.5C 187.658,43.8392 191.325,38.1726 195,32.5C 196.492,21.2984 193.326,11.965 185.5,4.5 Z"/></g>
<g><path style="opacity:1" fill="#3b3b3b" d="M 87.5,58.5 C 91.4391,61.2615 95.2724,64.2615 99,67.5C 99.1675,76.1635 99.0008,84.8302 98.5,93.5C 80.1546,93.1671 61.8212,93.5004 43.5,94.5C 48.3333,100.833 53.1667,107.167 58,113.5C 59.6667,114.167 61.3333,114.833 63,115.5C 63.3333,117.5 63.6667,119.5 64,121.5C 65.6667,122.733 67.1667,124.067 68.5,125.5C 63.9373,124.773 61.1039,122.107 60,117.5C 54.177,110.54 48.3437,103.54 42.5,96.5C 41.7542,95.2638 41.4208,93.9305 41.5,92.5C 59.8447,92.6267 78.178,92.2934 96.5,91.5C 97.0077,83.8047 97.5077,76.1381 98,68.5C 95.9205,66.8767 93.7538,65.3767 91.5,64C 90.2787,61.9663 88.9454,60.133 87.5,58.5 Z"/></g>
<g><path style="opacity:1" fill="#c5b47d" d="M 118.5,124.5 C 120.187,125.918 122.02,127.251 124,128.5C 124.726,140.331 125.56,151.997 126.5,163.5C 125.828,164.267 124.995,164.934 124,165.5C 122.111,164.911 120.111,164.577 118,164.5C 117,165.167 116,165.833 115,166.5C 113.111,165.911 111.111,165.577 109,165.5C 105.646,166.811 102.146,167.644 98.5,168C 97.5305,169.758 96.3639,170.258 95,169.5C 92.6667,170.5 91,172.167 90,174.5C 89.1074,173.919 88.1074,173.585 87,173.5C 83.9522,174.015 81.1188,175.015 78.5,176.5C 77.5581,176.392 76.7247,176.059 76,175.5C 72.6697,177.138 69.1697,177.638 65.5,177C 63.8934,175.951 63.2267,174.451 63.5,172.5C 64.9711,169.938 65.6377,167.104 65.5,164C 65.6953,161.207 65.0287,158.707 63.5,156.5C 62.5052,151.208 62.1718,145.875 62.5,140.5C 68.9953,139.906 75.3286,138.573 81.5,136.5C 82.7133,136.253 83.38,135.586 83.5,134.5C 84.4171,132.338 84.4171,130.005 83.5,127.5C 85.0188,126.59 86.6854,125.757 88.5,125C 98.4944,124.5 108.494,124.334 118.5,124.5 Z"/></g>
<g><path style="opacity:1" fill="#3c3c3a" d="M 68.5,125.5 C 73.3844,126.902 78.3844,127.569 83.5,127.5C 84.4171,130.005 84.4171,132.338 83.5,134.5C 81.9192,132.858 81.2525,130.858 81.5,128.5C 80.0695,128.421 78.7362,128.754 77.5,129.5C 74.1545,128.605 71.1545,127.271 68.5,125.5 Z"/></g>
<g><path style="opacity:1" fill="#66634f" d="M 83.5,134.5 C 83.38,135.586 82.7133,136.253 81.5,136.5C 75.3286,138.573 68.9953,139.906 62.5,140.5C 62.1718,145.875 62.5052,151.208 63.5,156.5C 65.0287,158.707 65.6953,161.207 65.5,164C 65.6377,167.104 64.9711,169.938 63.5,172.5C 62.5786,178.308 62.2453,184.308 62.5,190.5C 60.9522,194.43 61.2855,198.097 63.5,201.5C 66.657,205.157 69.9904,208.657 73.5,212C 72.944,212.383 72.6107,212.883 72.5,213.5C 71.0783,213.291 69.745,212.791 68.5,212C 67.1037,209.179 64.937,206.345 62,203.5C 61.3333,202.167 60.6667,200.833 60,199.5C 61.0114,190.334 61.6781,181.001 62,171.5C 63.3408,169.163 64.1741,166.663 64.5,164C 60.7098,156.296 59.5431,148.129 61,139.5C 68.1326,137.71 75.6326,136.043 83.5,134.5 Z"/></g>
<g><path style="opacity:1" fill="#575431" d="M 118.5,124.5 C 124.689,125.034 127.022,128.367 125.5,134.5C 126.325,144.143 126.658,153.809 126.5,163.5C 125.56,151.997 124.726,140.331 124,128.5C 122.02,127.251 120.187,125.918 118.5,124.5 Z"/></g>
<g><path style="opacity:1" fill="#c4b27c" d="M 161.5,139.5 C 163.45,146.358 163.95,153.358 163,160.5C 159.323,164.423 154.823,166.923 149.5,168C 148.193,169.943 148.193,171.777 149.5,173.5C 150.919,174.451 152.585,174.784 154.5,174.5C 156.534,178.74 158.201,183.24 159.5,188C 160.497,192.138 160.664,196.304 160,200.5C 158.03,202.921 156.53,205.588 155.5,208.5C 154.141,209.007 153.141,210.007 152.5,211.5C 151.5,209.833 150.167,208.5 148.5,207.5C 146.763,200.744 144.93,193.744 143,186.5C 140.723,184.764 140.223,182.764 141.5,180.5C 140.288,177.698 138.621,175.198 136.5,173C 137.051,171.602 137.384,170.268 137.5,169C 134.881,168.849 132.547,168.015 130.5,166.5C 131.47,158.222 131.803,149.889 131.5,141.5C 131.5,141.167 131.5,140.833 131.5,140.5C 132.812,139.855 133.812,138.855 134.5,137.5C 143.731,135.792 152.731,136.458 161.5,139.5 Z"/></g>
<g><path style="opacity:1" fill="#182008" d="M 91.5,137.5 C 93.7224,137.178 95.5557,137.845 97,139.5C 98.2662,143.395 98.7662,147.395 98.5,151.5C 92.0633,152.921 88.7299,150.421 88.5,144C 88.6516,141.351 89.6516,139.184 91.5,137.5 Z"/></g>
<g><path style="opacity:1" fill="#111901" d="M 125.5,134.5 C 126.497,134.47 127.164,134.97 127.5,136C 126.009,139.686 127.343,141.186 131.5,140.5C 131.5,140.833 131.5,141.167 131.5,141.5C 130.508,148.648 130.175,155.981 130.5,163.5C 129.167,163.5 127.833,163.5 126.5,163.5C 126.658,153.809 126.325,144.143 125.5,134.5 Z"/></g>
<g><path style="opacity:1" fill="#5a5535" d="M 161.5,139.5 C 162.79,140.058 163.623,141.058 164,142.5C 168.926,156.523 164.426,165.357 150.5,169C 149.62,170.356 149.286,171.856 149.5,173.5C 148.193,171.777 148.193,169.943 149.5,168C 154.823,166.923 159.323,164.423 163,160.5C 163.95,153.358 163.45,146.358 161.5,139.5 Z"/></g>
<g><path style="opacity:1" fill="#343435" d="M 216.5,109.5 C 216.649,110.552 216.483,111.552 216,112.5C 212.385,116.119 209.551,120.286 207.5,125C 202.503,127.699 197.17,129.199 191.5,129.5C 191.177,133.226 191.511,136.893 192.5,140.5C 197.344,142.252 202.344,143.252 207.5,143.5C 207.5,148.5 207.5,153.5 207.5,158.5C 203.876,159.876 200.376,161.543 197,163.5C 194.738,171.477 197.238,177.143 204.5,180.5C 207.215,186.167 208.049,192.167 207,198.5C 205.411,201.879 203.244,204.712 200.5,207C 201.686,208.412 203.019,209.579 204.5,210.5C 203.833,210.5 203.167,210.5 202.5,210.5C 202.167,210.5 201.833,210.5 201.5,210.5C 197.962,208.097 197.962,205.43 201.5,202.5C 202.117,202.389 202.617,202.056 203,201.5C 203.699,195.825 204.032,190.158 204,184.5C 201.043,181.509 198.043,178.509 195,175.5C 194.72,170.803 194.22,166.137 193.5,161.5C 193.818,160.353 194.484,159.519 195.5,159C 198.914,158.703 202.247,158.036 205.5,157C 206.795,153.214 206.795,149.38 205.5,145.5C 200.371,144.14 195.205,143.14 190,142.5C 189.501,137.845 189.334,133.179 189.5,128.5C 194.958,127.543 200.291,126.21 205.5,124.5C 206.132,121.487 206.466,118.487 206.5,115.5C 208.444,114.811 210.444,114.311 212.5,114C 213.283,111.882 214.616,110.382 216.5,109.5 Z"/></g>
<g><path style="opacity:1" fill="#8d7b44" d="M 131.5,141.5 C 131.803,149.889 131.47,158.222 130.5,166.5C 132.547,168.015 134.881,168.849 137.5,169C 137.384,170.268 137.051,171.602 136.5,173C 138.621,175.198 140.288,177.698 141.5,180.5C 140.223,182.764 140.723,184.764 143,186.5C 144.93,193.744 146.763,200.744 148.5,207.5C 150.167,208.5 151.5,209.833 152.5,211.5C 153.141,210.007 154.141,209.007 155.5,208.5C 154.953,210.485 153.953,212.151 152.5,213.5C 149.223,213.784 146.057,213.451 143,212.5C 142.167,213.5 141.333,214.5 140.5,215.5C 120.624,215.045 100.79,214.712 81,214.5C 80.2828,215.044 79.7828,215.711 79.5,216.5C 76.9214,216.606 74.588,215.939 72.5,214.5C 72.5,214.167 72.5,213.833 72.5,213.5C 72.6107,212.883 72.944,212.383 73.5,212C 69.9904,208.657 66.657,205.157 63.5,201.5C 66.4475,201.223 69.2809,201.556 72,202.5C 72.8333,201.5 73.6667,200.5 74.5,199.5C 81.2243,199.24 87.7243,199.573 94,200.5C 99.0466,198.03 99.7133,194.696 96,190.5C 85.4469,191.814 74.2802,191.814 62.5,190.5C 62.2453,184.308 62.5786,178.308 63.5,172.5C 63.2267,174.451 63.8934,175.951 65.5,177C 69.1697,177.638 72.6697,177.138 76,175.5C 76.7247,176.059 77.5581,176.392 78.5,176.5C 81.1188,175.015 83.9522,174.015 87,173.5C 88.1074,173.585 89.1074,173.919 90,174.5C 91,172.167 92.6667,170.5 95,169.5C 96.3639,170.258 97.5305,169.758 98.5,168C 102.146,167.644 105.646,166.811 109,165.5C 111.111,165.577 113.111,165.911 115,166.5C 116,165.833 117,165.167 118,164.5C 120.111,164.577 122.111,164.911 124,165.5C 124.995,164.934 125.828,164.267 126.5,163.5C 127.833,163.5 129.167,163.5 130.5,163.5C 130.175,155.981 130.508,148.648 131.5,141.5 Z"/></g>
<g><path style="opacity:1" fill="#c5b47d" d="M 63.5,201.5 C 61.2855,198.097 60.9522,194.43 62.5,190.5C 74.2802,191.814 85.4469,191.814 96,190.5C 99.7133,194.696 99.0466,198.03 94,200.5C 87.7243,199.573 81.2243,199.24 74.5,199.5C 73.6667,200.5 72.8333,201.5 72,202.5C 69.2809,201.556 66.4475,201.223 63.5,201.5 Z"/></g>
<g><path style="opacity:1" fill="#3c25b9" d="M 201.5,210.5 C 201.833,210.5 202.167,210.5 202.5,210.5C 209.475,212.301 215.309,215.968 220,221.5C 221.087,227.226 223.087,232.56 226,237.5C 226.983,243.58 228.15,249.58 229.5,255.5C 220.5,255.5 211.5,255.5 202.5,255.5C 202.666,250.821 202.499,246.155 202,241.5C 201.61,238.896 200.776,236.562 199.5,234.5C 197.274,229.231 193.941,224.731 189.5,221C 180.744,220.709 180.244,222.876 188,227.5C 192.725,236.265 195.891,245.598 197.5,255.5C 169.5,255.5 141.5,255.5 113.5,255.5C 122.94,253.221 132.606,251.388 142.5,250C 144.821,247.695 146.821,245.195 148.5,242.5C 149.833,241.833 151.167,241.167 152.5,240.5C 153.117,240.389 153.617,240.056 154,239.5C 154.292,235.118 154.792,230.785 155.5,226.5C 158.651,223.754 162.318,221.754 166.5,220.5C 166.957,218.402 167.957,216.736 169.5,215.5C 180.328,214.309 190.994,212.642 201.5,210.5 Z"/></g>
<g><path style="opacity:1" fill="#1b1834" d="M 201.5,202.5 C 197.962,205.43 197.962,208.097 201.5,210.5C 190.994,212.642 180.328,214.309 169.5,215.5C 174.508,213.418 179.842,212.251 185.5,212C 188.428,210.082 190.094,207.415 190.5,204C 194.06,202.763 197.727,202.263 201.5,202.5 Z"/></g>
<g><path style="opacity:1" fill="#584c30" d="M 152.5,213.5 C 149.242,214.171 145.909,215.004 142.5,216C 121.503,216.5 100.503,216.667 79.5,216.5C 79.7828,215.711 80.2828,215.044 81,214.5C 100.79,214.712 120.624,215.045 140.5,215.5C 141.333,214.5 142.167,213.5 143,212.5C 146.057,213.451 149.223,213.784 152.5,213.5 Z"/></g>
<g><path style="opacity:1" fill="#070119" d="M 199.5,234.5 C 201.082,241.396 201.749,248.396 201.5,255.5C 200.167,255.5 198.833,255.5 197.5,255.5C 195.891,245.598 192.725,236.265 188,227.5C 180.244,222.876 180.744,220.709 189.5,221C 193.941,224.731 197.274,229.231 199.5,234.5 Z"/></g>
<g><path style="opacity:1" fill="#6ca861" d="M 75.5,226.5 C 75.5,226.167 75.5,225.833 75.5,225.5C 85.1667,225.5 94.8333,225.5 104.5,225.5C 104.838,229.151 103.172,230.817 99.5,230.5C 100.765,229.521 102.099,228.521 103.5,227.5C 94.1904,226.502 84.8571,226.168 75.5,226.5 Z"/></g>
<g><path style="opacity:1" fill="#9af280" d="M 75.5,226.5 C 84.8571,226.168 94.1904,226.502 103.5,227.5C 102.099,228.521 100.765,229.521 99.5,230.5C 98.1667,231.167 96.8333,231.833 95.5,232.5C 93.1016,232.259 91.1016,232.926 89.5,234.5C 88.469,235.249 87.3024,235.915 86,236.5C 85.2087,242.701 83.7087,248.701 81.5,254.5C 81.5,254.833 81.5,255.167 81.5,255.5C 74.8333,255.5 68.1667,255.5 61.5,255.5C 61.5,255.167 61.5,254.833 61.5,254.5C 63.6928,252.478 64.6928,249.811 64.5,246.5C 65.9168,243.002 66.5835,239.335 66.5,235.5C 67.1667,234.167 67.8333,232.833 68.5,231.5C 69.3982,227.947 71.7315,226.281 75.5,226.5 Z"/></g>
<g><path style="opacity:1" fill="#3c27b7" d="M 104.5,225.5 C 115.932,225.431 127.265,226.098 138.5,227.5C 141.407,230.868 142.073,234.535 140.5,238.5C 136.319,241.762 133.819,240.762 133,235.5C 131.989,234.663 130.822,234.33 129.5,234.5C 130.833,240.5 128.5,242.833 122.5,241.5C 122.5,242.5 122.5,243.5 122.5,244.5C 124.099,244.232 125.432,244.566 126.5,245.5C 126.209,246.649 125.376,247.316 124,247.5C 116.564,248.787 109.231,250.453 102,252.5C 95.261,254.108 88.4277,254.775 81.5,254.5C 83.7087,248.701 85.2087,242.701 86,236.5C 87.3024,235.915 88.469,235.249 89.5,234.5C 91.7857,234.405 93.7857,233.738 95.5,232.5C 96.8333,231.833 98.1667,231.167 99.5,230.5C 103.172,230.817 104.838,229.151 104.5,225.5 Z"/></g>
<g><path style="opacity:1" fill="#241573" d="M 155.5,226.5 C 154.792,230.785 154.292,235.118 154,239.5C 153.617,240.056 153.117,240.389 152.5,240.5C 153.208,236.215 153.708,231.882 154,227.5C 154.383,226.944 154.883,226.611 155.5,226.5 Z"/></g>
<g><path style="opacity:1" fill="#3e29b8" d="M 68.5,231.5 C 67.8333,232.833 67.1667,234.167 66.5,235.5C 65.3678,239.019 64.3678,242.686 63.5,246.5C 62.8333,249.167 62.1667,251.833 61.5,254.5C 61.5,254.833 61.5,255.167 61.5,255.5C 56.8333,255.5 52.1667,255.5 47.5,255.5C 47.5,254.833 47.5,254.167 47.5,253.5C 48.5,253.5 49.5,253.5 50.5,253.5C 51.8094,249.596 52.8094,245.596 53.5,241.5C 54.4959,241.586 55.3292,241.252 56,240.5C 56.801,236.398 58.9677,233.231 62.5,231C 64.4211,230.64 66.0878,229.806 67.5,228.5C 68.3857,229.325 68.719,230.325 68.5,231.5 Z"/></g>
<g><path style="opacity:1" fill="#484568" d="M 75.5,225.5 C 75.5,225.833 75.5,226.167 75.5,226.5C 71.7315,226.281 69.3982,227.947 68.5,231.5C 68.719,230.325 68.3857,229.325 67.5,228.5C 66.0878,229.806 64.4211,230.64 62.5,231C 58.9677,233.231 56.801,236.398 56,240.5C 55.3292,241.252 54.4959,241.586 53.5,241.5C 54.4365,238.37 55.7698,235.37 57.5,232.5C 62.1485,229.011 67.1485,226.345 72.5,224.5C 74.7375,223.463 77.0709,223.297 79.5,224C 77.9419,224.21 76.6085,224.71 75.5,225.5 Z"/></g>
<g><path style="opacity:1" fill="#7096a0" d="M 95.5,232.5 C 93.7857,233.738 91.7857,234.405 89.5,234.5C 91.1016,232.926 93.1016,232.259 95.5,232.5 Z"/></g>
<g><path style="opacity:1" fill="#48406f" d="M 202.5,210.5 C 203.167,210.5 203.833,210.5 204.5,210.5C 211.935,211.68 217.768,215.346 222,221.5C 225.911,232.646 229.078,243.979 231.5,255.5C 230.833,255.5 230.167,255.5 229.5,255.5C 228.15,249.58 226.983,243.58 226,237.5C 223.087,232.56 221.087,227.226 220,221.5C 215.309,215.968 209.475,212.301 202.5,210.5 Z"/></g>
<g><path style="opacity:1" fill="#5f75ab" d="M 66.5,235.5 C 66.5835,239.335 65.9168,243.002 64.5,246.5C 64.1667,246.5 63.8333,246.5 63.5,246.5C 64.3678,242.686 65.3678,239.019 66.5,235.5 Z"/></g>
<g><path style="opacity:1" fill="#5b4aa8" d="M 140.5,238.5 C 140.5,239.5 140.5,240.5 140.5,241.5C 136.121,243.624 131.455,244.957 126.5,245.5C 125.432,244.566 124.099,244.232 122.5,244.5C 122.5,243.5 122.5,242.5 122.5,241.5C 128.5,242.833 130.833,240.5 129.5,234.5C 130.822,234.33 131.989,234.663 133,235.5C 133.819,240.762 136.319,241.762 140.5,238.5 Z"/></g>
<g><path style="opacity:1" fill="#1f1269" d="M 199.5,234.5 C 200.776,236.562 201.61,238.896 202,241.5C 202.499,246.155 202.666,250.821 202.5,255.5C 202.167,255.5 201.833,255.5 201.5,255.5C 201.749,248.396 201.082,241.396 199.5,234.5 Z"/></g>
<g><path style="opacity:1" fill="#0d071d" d="M 138.5,227.5 C 140.679,227.84 142.512,228.84 144,230.5C 144.617,231.449 144.451,232.282 143.5,233C 147.244,236.096 146.911,238.929 142.5,241.5C 144.52,241.813 146.52,242.146 148.5,242.5C 146.821,245.195 144.821,247.695 142.5,250C 132.606,251.388 122.94,253.221 113.5,255.5C 102.833,255.5 92.1667,255.5 81.5,255.5C 81.5,255.167 81.5,254.833 81.5,254.5C 88.4277,254.775 95.261,254.108 102,252.5C 109.231,250.453 116.564,248.787 124,247.5C 125.376,247.316 126.209,246.649 126.5,245.5C 131.455,244.957 136.121,243.624 140.5,241.5C 140.5,240.5 140.5,239.5 140.5,238.5C 142.073,234.535 141.407,230.868 138.5,227.5 Z"/></g>
<g><path style="opacity:1" fill="#463e6a" d="M 53.5,241.5 C 52.8094,245.596 51.8094,249.596 50.5,253.5C 49.5,253.5 48.5,253.5 47.5,253.5C 49.6992,249.549 51.6992,245.549 53.5,241.5 Z"/></g>
<g><path style="opacity:1" fill="#7cb792" d="M 63.5,246.5 C 63.8333,246.5 64.1667,246.5 64.5,246.5C 64.6928,249.811 63.6928,252.478 61.5,254.5C 62.1667,251.833 62.8333,249.167 63.5,246.5 Z"/></g>
</svg>
